<svg width="97" height="25" viewBox="0 0 97 25" fill="none" xmlns="http://www.w3.org/2000/svg">
<g clip-path="url(#clip0_1_3)">
<path fill-rule="evenodd" clip-rule="evenodd" d="M3.26482 24.0445C6.33899 24.0445 10.8113 15.1915 10.8113 11.8418C10.8113 8.49197 6.33899 0 3.26482 0C0.190714 0 0 8.49197 0 11.8418C0 15.1915 0.190714 24.0445 3.26482 24.0445ZM11.7441 1.90791C13.7723 5.00635 15.4848 9.73702 15.4859 12.057C15.4848 14.3769 13.7723 19.1077 11.7441 22.2057C11.2594 22.9461 11.7211 23.7157 12.8671 23.0739C18.1607 20.1117 23.1725 14.7477 23.1785 12.0593V12.057L23.1786 12.0548C23.1726 9.36646 18.1607 4.00246 12.8671 1.03977C11.7211 0.398342 11.2594 1.16762 11.7441 1.90791Z" fill="url(#paint0_linear_1_3)"/>
<path d="M40.0341 22C38.6794 22 37.4723 21.6528 36.4128 20.9585C35.3534 20.2642 34.5197 19.3165 33.9118 18.1156C33.3039 16.8958 33 15.5353 33 14.0341C33 12.5141 33.2953 11.163 33.8858 9.98074C34.4937 8.79852 35.31 7.86963 36.3347 7.19408C37.3768 6.49975 38.5404 6.15259 39.8257 6.15259C40.8678 6.15259 41.7883 6.35901 42.5872 6.77185C43.4035 7.16593 44.0896 7.71012 44.6454 8.40445C45.2185 9.08 45.6527 9.85877 45.948 10.7407C46.2606 11.604 46.4169 12.5047 46.4169 13.443C46.4169 13.6494 46.3995 13.884 46.3648 14.1467C46.3474 14.3906 46.3214 14.6252 46.2866 14.8504H34.7716V12.5985H44.8798L43.7335 13.6119C43.8898 12.636 43.803 11.7635 43.473 10.9941C43.143 10.2247 42.6567 9.61481 42.0141 9.16444C41.3715 8.71407 40.642 8.48889 39.8257 8.48889C39.0094 8.48889 38.2626 8.71407 37.5852 9.16444C36.9078 9.61481 36.3781 10.2622 35.996 11.1067C35.6313 11.9323 35.4836 12.9175 35.5531 14.0622C35.4836 15.1694 35.64 16.1452 36.0221 16.9896C36.4215 17.8153 36.9773 18.4627 37.6894 18.9319C38.4189 19.3822 39.2091 19.6074 40.0602 19.6074C40.998 19.6074 41.7883 19.3728 42.4309 18.9037C43.0735 18.4346 43.5946 17.8341 43.9941 17.1022L46.0261 18.2281C45.7482 18.9225 45.314 19.5605 44.7235 20.1422C44.1504 20.7052 43.4643 21.1556 42.6654 21.4933C41.8838 21.8311 41.0067 22 40.0341 22Z" fill="white"/>
<path d="M48.2733 21.6622V6.49037H50.6441V9.44593L50.2533 9.19259C50.6007 8.23556 51.1565 7.49432 51.9207 6.96889C52.7022 6.42469 53.614 6.15259 54.6561 6.15259C55.6635 6.15259 56.558 6.39654 57.3395 6.88444C58.1385 7.37235 58.7637 8.0479 59.2153 8.91111C59.6842 9.77432 59.9187 10.7501 59.9187 11.8385V21.6622H57.4698V12.683C57.4698 11.8385 57.3308 11.1254 57.0529 10.5437C56.7751 9.96198 56.3756 9.5116 55.8545 9.19259C55.3509 8.85482 54.769 8.68593 54.109 8.68593C53.449 8.68593 52.8585 8.85482 52.3375 9.19259C51.8338 9.5116 51.4343 9.97136 51.1391 10.5719C50.8438 11.1536 50.6962 11.8573 50.6962 12.683V21.6622H48.2733Z" fill="white"/>
<path d="M66.1993 22C65.2788 22 64.4625 21.8217 63.7504 21.4652C63.0557 21.0899 62.5086 20.5832 62.1091 19.9452C61.7096 19.2884 61.5099 18.5378 61.5099 17.6933C61.5099 16.8864 61.6662 16.164 61.9789 15.5259C62.3089 14.8691 62.8125 14.3156 63.4899 13.8652C64.1846 13.4148 65.053 13.0958 66.0951 12.9081L71.3056 11.9793V14.1748L66.6422 15.0193C65.7391 15.1881 65.0791 15.4978 64.6622 15.9481C64.2628 16.3985 64.063 16.9521 64.063 17.6089C64.063 18.2281 64.2888 18.7442 64.7404 19.157C65.2093 19.5699 65.7912 19.7763 66.4859 19.7763C67.3717 19.7763 68.1359 19.5793 68.7785 19.1852C69.4385 18.7723 69.9508 18.2188 70.3156 17.5244C70.6977 16.8301 70.8887 16.0607 70.8887 15.2163V11.36C70.8887 10.5343 70.6021 9.86815 70.029 9.36148C69.4732 8.83605 68.7351 8.57333 67.8146 8.57333C67.0156 8.57333 66.3035 8.79852 65.6783 9.24889C65.0704 9.68049 64.6188 10.2622 64.3236 10.9941L62.2133 9.81185C62.4738 9.11753 62.8907 8.49827 63.4638 7.95407C64.037 7.39111 64.7057 6.95012 65.4699 6.63111C66.2341 6.3121 67.033 6.15259 67.8667 6.15259C68.9435 6.15259 69.8901 6.37778 70.7064 6.82815C71.5227 7.25975 72.1566 7.86963 72.6082 8.65778C73.0771 9.42716 73.3116 10.3279 73.3116 11.36V21.6622H70.9408V18.7911L71.3837 18.96C71.0885 19.5605 70.689 20.0859 70.1853 20.5363C69.6816 20.9867 69.0911 21.3432 68.4138 21.6059C67.7364 21.8686 66.9983 22 66.1993 22Z" fill="white"/>
<path d="M81.2166 21.8311C79.8445 21.8311 78.7851 21.4089 78.0382 20.5644C77.3088 19.72 76.944 18.5284 76.944 16.9896V8.99556H74.3909V6.49037H74.912C75.5372 6.49037 76.0322 6.28395 76.3969 5.87111C76.7617 5.45827 76.944 4.91408 76.944 4.23852V3H79.3669V6.49037H82.5192V8.99556H79.3669V16.9052C79.3669 17.4119 79.4364 17.8528 79.5753 18.2281C79.7316 18.6035 79.9835 18.9037 80.3308 19.1289C80.6782 19.3353 81.1385 19.4385 81.7116 19.4385C81.8332 19.4385 81.9808 19.4291 82.1545 19.4104C82.3455 19.3916 82.5192 19.3728 82.6755 19.3541V21.6622C82.4498 21.7185 82.1979 21.756 81.92 21.7748C81.6421 21.8123 81.4077 21.8311 81.2166 21.8311Z" fill="white"/>
<path d="M90.6172 22C89.2625 22 88.0554 21.6528 86.9959 20.9585C85.9365 20.2642 85.1028 19.3165 84.4949 18.1156C83.887 16.8958 83.5831 15.5353 83.5831 14.0341C83.5831 12.5141 83.8784 11.163 84.4689 9.98074C85.0768 8.79852 85.8931 7.86963 86.9178 7.19408C87.9599 6.49975 89.1235 6.15259 90.4088 6.15259C91.4509 6.15259 92.3714 6.35901 93.1703 6.77185C93.9866 7.16593 94.6727 7.71012 95.2285 8.40445C95.8016 9.08 96.2358 9.85877 96.5311 10.7407C96.8437 11.604 97 12.5047 97 13.443C97 13.6494 96.9826 13.884 96.9479 14.1467C96.9305 14.3906 96.9045 14.6252 96.8697 14.8504H85.3546V12.5985H95.4629L94.3166 13.6119C94.4729 12.636 94.3861 11.7635 94.0561 10.9941C93.7261 10.2247 93.2398 9.61481 92.5972 9.16444C91.9545 8.71407 91.2251 8.48889 90.4088 8.48889C89.5925 8.48889 88.8456 8.71407 88.1683 9.16444C87.4909 9.61481 86.9612 10.2622 86.5791 11.1067C86.2144 11.9323 86.0667 12.9175 86.1362 14.0622C86.0667 15.1694 86.2231 16.1452 86.6052 16.9896C87.0046 17.8153 87.5604 18.4627 88.2725 18.9319C89.002 19.3822 89.7922 19.6074 90.6433 19.6074C91.5811 19.6074 92.3714 19.3728 93.014 18.9037C93.6566 18.4346 94.1777 17.8341 94.5771 17.1022L96.6092 18.2281C96.3313 18.9225 95.8971 19.5605 95.3066 20.1422C94.7335 20.7052 94.0474 21.1556 93.2485 21.4933C92.4669 21.8311 91.5898 22 90.6172 22Z" fill="white"/>
</g>
<defs>
<linearGradient id="paint0_linear_1_3" x1="7.89485" y1="8.34591" x2="7.89485" y2="23.9099" gradientUnits="userSpaceOnUse">
<stop stop-color="#FF8956"/>
<stop offset="1" stop-color="#F77036"/>
</linearGradient>
<clipPath id="clip0_1_3">
<rect width="97" height="25" fill="white"/>
</clipPath>
</defs>
</svg>
